<svg width="38" height="48" viewBox="0 0 38 48" fill="none" xmlns="http://www.w3.org/2000/svg">
<rect width="38" height="48" rx="12" fill="#625B39"/>
<path d="M27.6421 22.9805C27.5597 24.8971 27.0843 26.4207 26.2158 27.5513C25.3548 28.6743 24.1943 29.2358 22.7344 29.2358C22.0905 29.2358 21.5327 29.0973 21.061 28.8203C20.5968 28.5433 20.245 28.1465 20.0054 27.6299C19.2567 28.6781 18.2796 29.2021 17.0742 29.2021C15.9811 29.2021 15.1351 28.7417 14.5361 27.8208C13.9372 26.8999 13.7126 25.6833 13.8623 24.1709C13.9971 22.9355 14.3078 21.8387 14.7944 20.8804C15.2886 19.9146 15.91 19.1733 16.6587 18.6567C17.4074 18.1401 18.216 17.8818 19.0845 17.8818C20.1551 17.8818 21.0685 18.1289 21.8247 18.623L22.5322 19.106L21.9595 25.5972C21.8846 26.1886 21.9482 26.6416 22.1504 26.9561C22.36 27.2705 22.6895 27.4277 23.1387 27.4277C23.8275 27.4277 24.404 27.0272 24.8682 26.2261C25.3324 25.4175 25.5869 24.3618 25.6318 23.0591C25.7591 20.4461 25.2313 18.4396 24.0483 17.0396C22.8729 15.632 21.1284 14.9282 18.8149 14.9282C17.37 14.9282 16.0822 15.2951 14.9517 16.0288C13.8211 16.7625 12.9302 17.807 12.2788 19.1621C11.6274 20.5098 11.2606 22.0558 11.1782 23.8003C11.0584 26.4507 11.59 28.4984 12.7729 29.9434C13.9559 31.3958 15.7266 32.1221 18.085 32.1221C18.7064 32.1221 19.3577 32.0509 20.0391 31.9087C20.7204 31.7739 21.3081 31.5905 21.8022 31.3584L22.229 33.0879C21.7723 33.3874 21.1546 33.627 20.376 33.8066C19.6048 33.9938 18.8262 34.0874 18.04 34.0874C16.0635 34.0874 14.3789 33.6868 12.9863 32.8857C11.5938 32.0921 10.5531 30.9167 9.86426 29.3594C9.18294 27.8096 8.88721 25.9565 8.97705 23.8003C9.06689 21.7339 9.53857 19.8809 10.3921 18.2412C11.2456 16.6016 12.4061 15.3363 13.8735 14.4453C15.3485 13.5469 17.0106 13.0977 18.8599 13.0977C20.7391 13.0977 22.3563 13.502 23.7114 14.3105C25.0666 15.1117 26.0811 16.2609 26.7549 17.7583C27.4287 19.2557 27.7244 20.9964 27.6421 22.9805ZM16.3555 24.1709C16.2731 25.1592 16.3592 25.9116 16.6138 26.4282C16.8683 26.9373 17.2801 27.1919 17.8491 27.1919C18.216 27.1919 18.5641 27.0309 18.8936 26.709C19.223 26.387 19.4963 25.9229 19.7134 25.3164L20.1851 20.0044C19.8931 19.9071 19.5936 19.8584 19.2866 19.8584C18.4256 19.8584 17.7555 20.2253 17.2764 20.959C16.8047 21.6927 16.4977 22.7633 16.3555 24.1709Z" fill="#FFC542"/>
</svg>
